<?xml version="1.0" standalone="no"?>
<!DOCTYPE svg PUBLIC "-//W3C//DTD SVG 20010904//EN"
 "http://www.w3.org/TR/2001/REC-SVG-20010904/DTD/svg10.dtd">
<svg version="1.0" xmlns="http://www.w3.org/2000/svg"
 width="500.000000pt" height="500.000000pt" viewBox="0 0 500.000000 500.000000"
 preserveAspectRatio="xMidYMid meet">
<metadata>
Created by potrace 1.14, written by Peter Selinger 2001-2017
</metadata>
<g transform="translate(0.000000,500.000000) scale(0.100000,-0.100000)"
fill="#000000" stroke="none">
<path d="M2397 4674 c-1 -1 -56 -5 -122 -8 -65 -4 -122 -9 -125 -11 -3 -1 -27
-5 -55 -9 -27 -3 -61 -8 -75 -11 -14 -3 -41 -8 -60 -11 -141 -24 -382 -102
-525 -169 l-90 -42 105 -32 c58 -18 130 -41 160 -51 l55 -19 -45 6 c-78 10
-84 11 -145 22 -33 6 -81 13 -107 16 l-48 7 42 -89 c23 -48 50 -103 60 -120
10 -18 16 -33 14 -33 -2 0 -39 47 -82 105 -43 58 -81 105 -84 105 -5 0 -26
-65 -81 -248 -12 -40 -23 -72 -24 -70 -2 2 3 38 11 82 7 43 16 97 19 120 4 22
10 58 15 79 4 20 5 39 1 41 -11 6 -171 -100 -280 -187 -248 -196 -455 -438
-587 -687 -111 -209 -206 -508 -229 -720 -4 -30 -8 -61 -10 -67 -7 -21 1 -15
48 30 164 162 430 277 702 304 129 13 428 6 527 -12 27 -5 21 -10 153 140 39
44 91 102 116 130 78 85 121 135 118 136 -14 3 -83 8 -196 13 -144 6 -325 15
-413 21 -30 2 -81 4 -112 4 -57 1 -84 17 -30 18 31 0 281 13 362 18 98 6 354
18 373 17 26 -1 21 8 -39 73 -78 84 -100 108 -189 210 -44 50 -86 97 -95 105
-8 9 -28 31 -45 50 -30 34 -30 34 15 -5 36 -31 130 -115 224 -200 6 -5 45 -39
86 -75 41 -36 84 -73 94 -82 11 -10 21 -17 22 -15 2 2 12 174 29 532 8 172 16
289 21 294 2 2 4 -25 5 -60 1 -35 2 -86 4 -114 2 -27 6 -106 9 -175 4 -69 9
-165 11 -215 3 -49 7 -127 9 -173 2 -46 6 -85 8 -88 5 -4 25 13 153 129 320
292 344 310 190 142 -21 -22 -63 -69 -94 -104 -31 -36 -78 -89 -106 -119 -93
-102 -97 -108 -72 -109 106 -4 340 -15 367 -18 19 -2 103 -6 185 -10 209 -9
224 -10 230 -16 2 -3 -8 -6 -23 -6 -37 -1 -292 -14 -367 -18 -72 -5 -351 -18
-382 -19 -13 0 -23 -4 -23 -8 0 -7 71 -91 91 -108 3 -3 27 -30 54 -60 59 -68
173 -196 200 -224 79 -85 47 -63 -86 58 -30 28 -91 83 -134 121 -44 39 -103
92 -132 119 -42 39 -53 45 -54 30 0 -10 -2 -41 -4 -69 -1 -27 -6 -111 -9 -185
-4 -74 -8 -137 -8 -140 -2 -28 14 -36 92 -46 19 -2 43 -7 52 -10 19 -6 34 -9
143 -29 44 -8 92 -17 108 -20 15 -3 37 -7 50 -9 12 -2 74 -13 137 -25 63 -11
135 -23 160 -26 25 -3 56 -8 70 -10 50 -8 106 -14 170 -20 36 -3 83 -8 105
-10 22 -3 127 -5 234 -5 l194 -1 35 33 c58 56 262 284 333 373 192 239 340
554 365 777 3 29 7 64 9 77 5 30 -52 89 -170 178 -311 234 -675 398 -1012 458
-48 8 -99 17 -113 20 -84 15 -451 38 -463 29z m332 -191 c-3 -50 13 -268 20
-275 3 -4 48 28 99 72 51 44 98 83 105 87 13 8 -74 -97 -132 -159 -19 -21 -32
-40 -29 -43 3 -3 37 -8 74 -11 38 -3 92 -7 119 -9 28 -2 74 -4 104 -5 107 0
31 -14 -144 -26 -87 -6 -142 -10 -153 -13 -2 -1 36 -49 84 -108 49 -60 80
-101 69 -93 -11 8 -56 44 -100 81 -44 36 -85 68 -90 71 -7 4 -12 -18 -14 -60
-2 -37 -5 -80 -6 -97 -2 -16 -3 -59 -4 -94 -1 -61 -14 -79 -17 -23 -6 108 -19
271 -23 280 -1 3 -150 -118 -179 -145 -29 -28 -22 -11 11 30 106 125 129 157
110 158 -10 1 -31 3 -48 4 -30 3 -200 16 -242 19 -24 2 -41 12 -20 13 94 2
318 21 324 27 3 3 -33 49 -78 103 -46 54 -75 91 -64 83 21 -16 141 -117 163
-137 20 -19 28 -16 28 10 0 12 4 76 9 142 4 66 8 126 8 133 0 6 4 12 9 12 4 0
8 -12 7 -27z"/>
<path d="M4282 3797 c-11 -223 -90 -448 -231 -661 -87 -131 -213 -276 -397
-457 -431 -424 -605 -599 -653 -654 -79 -90 -212 -270 -267 -360 -109 -176
-206 -415 -240 -590 -2 -11 -6 -31 -9 -45 -6 -32 -14 -87 -24 -180 -8 -73 -6
-365 3 -405 2 -11 5 -39 5 -63 1 -28 5 -41 12 -37 6 4 8 9 6 12 -4 3 8 65 38
193 24 106 144 361 231 490 157 236 359 458 729 805 486 455 651 633 797 860
86 133 158 312 183 450 13 73 12 259 -2 340 -25 149 -58 234 -116 298 -29 31
-54 57 -57 57 -3 0 -6 -24 -8 -53z"/>
<path d="M4680 3350 c-12 -306 -83 -541 -237 -780 -81 -124 -152 -210 -287
-345 -148 -148 -189 -183 -536 -465 -330 -267 -401 -329 -545 -474 -142 -143
-168 -173 -252 -286 -94 -128 -160 -242 -220 -380 -28 -62 -86 -240 -81 -246
3 -2 27 29 54 69 27 39 94 117 149 172 165 165 359 300 756 525 663 377 862
512 1067 725 257 266 377 572 338 860 -28 203 -108 466 -186 614 -18 33 -19
34 -20 11z"/>
<path d="M1760 3289 c-36 -32 -74 -67 -85 -77 -11 -10 -63 -56 -115 -102 -52
-47 -103 -92 -113 -102 -18 -16 -18 -16 0 -21 10 -3 68 -13 128 -22 61 -9 121
-18 135 -20 14 -3 43 -7 65 -10 22 -4 48 -9 59 -12 17 -5 18 1 11 123 -4 71
-9 167 -10 213 -2 46 -5 85 -7 86 -2 2 -32 -23 -68 -56z"/>
<path d="M927 2894 c-1 -1 -31 -4 -67 -8 -194 -19 -306 -49 -450 -120 -89 -44
-163 -94 -240 -164 l-64 -59 -3 -79 c-1 -43 0 -89 2 -101 l5 -21 51 24 c178
86 369 126 614 127 238 1 459 -26 840 -104 83 -17 157 -32 165 -34 8 -2 60
-12 115 -24 161 -33 335 -64 425 -76 25 -3 56 -8 70 -10 82 -14 253 -26 387
-27 l114 -1 195 196 195 196 -138 -1 c-129 -1 -268 6 -338 17 -16 3 -48 7 -71
9 -22 3 -56 7 -75 10 -19 3 -52 8 -74 11 -34 5 -100 16 -225 39 -14 3 -50 10
-80 16 -30 6 -68 13 -85 16 -16 2 -37 7 -45 9 -8 2 -28 7 -45 9 -16 3 -97 19
-180 36 -166 34 -407 75 -500 86 -33 3 -68 8 -78 10 -51 9 -412 25 -420 18z"/>
<path d="M540 2348 c-135 -26 -246 -60 -363 -112 -45 -20 -57 -30 -54 -43 3
-10 8 -34 11 -53 9 -55 13 -71 31 -140 25 -96 98 -300 108 -300 2 0 4 15 5 33
3 40 32 142 60 212 51 127 146 262 254 359 l63 56 -35 -2 c-19 -1 -55 -6 -80
-10z"/>
<path d="M1097 2294 c-1 -1 -22 -4 -47 -7 -128 -17 -244 -80 -355 -191 l-80
-81 65 -6 c78 -8 117 -20 177 -53 l45 -26 57 44 c77 60 122 78 213 82 148 6
270 -62 330 -185 17 -34 24 -66 25 -123 2 -94 -25 -157 -94 -218 -96 -84 -221
-84 -318 1 -45 40 -65 83 -65 139 0 158 179 238 278 125 27 -30 30 -41 28 -85
-3 -62 -41 -107 -96 -114 -44 -5 -66 7 -90 46 -22 36 -12 78 23 101 61 39 134
-36 75 -77 -19 -13 -20 -16 -5 -16 23 0 41 42 33 74 -7 28 -50 55 -79 50 -35
-5 -66 -34 -78 -72 -14 -48 6 -94 51 -117 61 -32 133 -16 175 39 49 65 46 161
-7 215 -146 149 -385 42 -394 -177 -3 -85 18 -142 75 -202 142 -150 365 -146
522 10 177 175 180 453 8 635 -115 121 -247 180 -427 189 -23 2 -43 2 -45 0z"/>
<path d="M1766 2202 c75 -112 110 -195 129 -297 10 -55 5 -189 -9 -249 l-14
-58 53 -23 c154 -68 315 -95 512 -86 40 1 49 19 88 181 22 91 28 146 31 262 4
136 3 148 -14 157 -10 6 -27 10 -38 9 -17 -1 -66 4 -169 18 -95 13 -288 47
-385 69 -36 8 -81 17 -100 20 -19 3 -50 10 -68 15 l-34 9 18 -27z"/>
<path d="M2636 2081 c-2 -3 0 -31 4 -61 4 -30 7 -85 6 -123 0 -37 0 -67 1 -67
1 0 29 42 64 93 34 50 73 105 86 120 12 16 23 33 23 37 0 10 -178 11 -184 1z"/>
<path d="M637 1929 c-71 -11 -91 -28 -114 -101 -22 -67 -47 -187 -40 -194 2
-2 33 3 68 13 36 9 104 17 156 17 75 1 93 4 94 16 3 52 38 159 61 187 18 23 1
39 -53 51 -73 17 -115 19 -172 11z"/>
<path d="M4740 1791 c-124 -170 -366 -389 -563 -510 -93 -56 -422 -221 -443
-221 -4 0 -344 -141 -404 -167 -330 -147 -548 -285 -742 -471 -43 -41 -78 -77
-78 -81 0 -3 21 -5 47 -4 98 3 263 14 275 18 7 2 36 6 63 9 186 21 532 121
693 200 40 20 75 36 77 36 12 0 197 108 275 161 319 213 587 511 745 829 55
110 121 268 114 274 -2 2 -29 -31 -59 -73z"/>
<path d="M1212 1718 c-18 -18 -14 -43 11 -64 12 -10 16 -12 10 -4 -16 17 -17
34 -3 25 19 -12 41 15 29 36 -11 22 -30 24 -47 7z"/>
<path d="M699 1599 c-70 -10 -178 -46 -201 -66 -13 -12 -16 -25 -12 -57 19
-150 64 -251 152 -346 l60 -65 7 30 c19 83 29 112 53 164 14 31 43 82 64 113
38 56 38 59 23 88 -8 16 -21 55 -28 87 -15 64 -20 67 -118 52z"/>
<path d="M1810 1465 c-35 -61 -138 -171 -188 -200 -18 -11 -32 -22 -32 -26 0
-13 130 -147 182 -186 69 -53 173 -116 220 -133 l37 -14 63 54 c100 85 175
168 243 270 35 52 65 101 67 109 3 14 -3 16 -92 25 -136 14 -239 45 -374 112
-49 24 -90 44 -92 44 -1 0 -17 -25 -34 -55z"/>
<path d="M861 1322 c-47 -94 -72 -196 -72 -297 0 -44 4 -54 33 -80 114 -102
158 -131 261 -170 88 -33 99 -33 87 0 -27 71 -43 210 -36 321 l5 102 -65 32
c-38 18 -91 57 -125 90 l-60 58 -28 -56z"/>
<path d="M1475 1193 c-27 -11 -77 -16 -153 -17 l-112 -1 5 -90 c7 -138 72
-354 110 -369 21 -7 235 1 296 12 64 12 186 52 242 80 l39 19 -84 60 c-98 72
-199 175 -254 261 -21 34 -41 61 -44 61 -3 0 -23 -7 -45 -16z"/>
<path d="M2235 896 c-174 -178 -360 -287 -566 -332 -51 -11 -66 -14 -114 -23
-27 -5 -54 -7 -60 -4 -5 2 -2 -2 8 -10 44 -36 418 -142 572 -163 28 -3 59 -8
70 -10 11 -2 53 -6 93 -9 41 -3 77 -6 80 -6 32 -5 34 2 25 74 -9 85 -11 445
-2 535 4 34 6 62 5 61 0 -1 -50 -52 -111 -113z"/>
</g>
</svg>
